# xmcd
#
# Track frame offsets: 
#        150
#        5193
#        10592
#        30090
#        75916
#        127728
#        149876
#        179753
#
# Disc length: 2886 seconds
#
# Revision: 1
# Processed by: cddbd v1.5.2PL0 Copyright (c) Steve Scherf et al.
# Submitted via: ExactAudioCopy v0.99pb4
#
DISCID=5a0b4408
DTITLE=Jimi Hendrix Experience - Live at Woburn
DYEAR=1968
DGENRE=Rock
TTITLE0=Intro
TTITLE1=Sgt Pepper's Lonely Hearts Club Band
TTITLE2=Fire
TTITLE3=Tax Free
TTITLE4=Red House
TTITLE5=Foxey Lady
TTITLE6=Voodoo Chile
TTITLE7=Purple Haze
EXTD=
EXTT0=
EXTT1=
EXTT2=
EXTT3=
EXTT4=
EXTT5=
EXTT6=
EXTT7=
PLAYORDER=
